<svg xmlns="http://www.w3.org/2000/svg" xmlns:xlink="http://www.w3.org/1999/xlink" width="1343" zoomAndPan="magnify" viewBox="0 0 1007.25 420.749983" height="561" preserveAspectRatio="xMidYMid meet" version="1.0"><defs><filter x="0%" y="0%" width="100%" height="100%" id="1bc78041ea"><feColorMatrix values="0 0 0 0 1 0 0 0 0 1 0 0 0 0 1 0 0 0 1 0" color-interpolation-filters="sRGB"/></filter><g/><clipPath id="4e1dc65da9"><path d="M 0 0.03125 L 1006.5 0.03125 L 1006.5 352 L 0 352 Z M 0 0.03125 " clip-rule="nonzero"/></clipPath><clipPath id="cb9cf28920"><path d="M 225 80 L 989 80 L 989 420.46875 L 225 420.46875 Z M 225 80 " clip-rule="nonzero"/></clipPath><clipPath id="347eb64c63"><path d="M 204.816406 205.859375 L 342.234375 205.859375 L 342.234375 343.28125 L 204.816406 343.28125 Z M 204.816406 205.859375 " clip-rule="nonzero"/></clipPath><clipPath id="c9f8801ffc"><path d="M 273.527344 205.859375 C 235.578125 205.859375 204.816406 236.625 204.816406 274.570312 C 204.816406 312.515625 235.578125 343.28125 273.527344 343.28125 C 311.472656 343.28125 342.234375 312.515625 342.234375 274.570312 C 342.234375 236.625 311.472656 205.859375 273.527344 205.859375 Z M 273.527344 205.859375 " clip-rule="nonzero"/></clipPath><clipPath id="6fbf91c051"><path d="M 211.855469 212.902344 L 335.195312 212.902344 L 335.195312 336.238281 L 211.855469 336.238281 Z M 211.855469 212.902344 " clip-rule="nonzero"/></clipPath><clipPath id="acfcc6ea9d"><path d="M 273.527344 212.902344 C 239.46875 212.902344 211.855469 240.511719 211.855469 274.570312 C 211.855469 308.628906 239.46875 336.238281 273.527344 336.238281 C 307.585938 336.238281 335.195312 308.628906 335.195312 274.570312 C 335.195312 240.511719 307.585938 212.902344 273.527344 212.902344 Z M 273.527344 212.902344 " clip-rule="nonzero"/></clipPath><clipPath id="61bc24aaf8"><path d="M 124.007812 208.277344 L 259.011719 208.277344 L 259.011719 343.28125 L 124.007812 343.28125 Z M 124.007812 208.277344 " clip-rule="nonzero"/></clipPath><clipPath id="4be4cdbe70"><path d="M 191.511719 208.277344 C 154.230469 208.277344 124.007812 238.496094 124.007812 275.777344 C 124.007812 313.058594 154.230469 343.28125 191.511719 343.28125 C 228.789062 343.28125 259.011719 313.058594 259.011719 275.777344 C 259.011719 238.496094 228.789062 208.277344 191.511719 208.277344 Z M 191.511719 208.277344 " clip-rule="nonzero"/></clipPath><clipPath id="1085ac537e"><path d="M 152.1875 242.304688 L 230.878906 242.304688 L 230.878906 309.007812 L 152.1875 309.007812 Z M 152.1875 242.304688 " clip-rule="nonzero"/></clipPath><clipPath id="26e2bd64f7"><path d="M 191 242.304688 L 230.878906 242.304688 L 230.878906 309.007812 L 191 309.007812 Z M 191 242.304688 " clip-rule="nonzero"/></clipPath><mask id="20d133cad1"><g filter="url(#1bc78041ea)"><rect x="-100.725" width="1208.7" fill="#000000" y="-42.074998" height="504.89998" fill-opacity="0.4"/></g></mask><clipPath id="2c5fdda585"><path d="M 0.378906 62 L 22 62 L 22 67.007812 L 0.378906 67.007812 Z M 0.378906 62 " clip-rule="nonzero"/></clipPath><clipPath id="d53719fe29"><path d="M 0.378906 0.304688 L 39.878906 0.304688 L 39.878906 60 L 0.378906 60 Z M 0.378906 0.304688 " clip-rule="nonzero"/></clipPath><clipPath id="a3472fa870"><rect x="0" width="40" y="0" height="68"/></clipPath></defs><g clip-path="url(#4e1dc65da9)"><path stroke-linecap="butt" transform="matrix(0.749442, 0, 0, 0.749442, 43.068126, 26.076764)" fill="none" stroke-linejoin="miter" d="M 137.699126 190.070327 C 137.699126 202.991399 137.256088 206.650372 134.759439 210.53347 C 131.100466 216.407632 130.876341 216.855883 130.876341 220.071817 C 130.876341 225.727067 134.535314 229.386039 139.971651 229.386039 C 141.801137 229.386039 145.183862 229.109792 149.06696 228.885667 C 154.72221 228.442629 164.036432 227.999591 169.973141 227.999591 C 174.299277 227.999591 186.553186 228.442629 199.031221 228.885667 C 204.910596 229.109792 209.455645 229.386039 211.952294 229.386039 C 229.918788 229.386039 247.165996 225.727067 261.69243 218.904282 C 291.469795 204.820886 307.606803 176.648882 307.606803 138.495492 C 307.606803 102.838752 291.693921 74.004797 264.689452 61.02639 C 249.214395 53.541654 230.361826 49.491765 209.67977 49.491765 C 206.072919 49.491765 200.860707 49.71589 193.819009 50.158928 C 181.064728 50.826092 176.071429 51.045004 170.635092 51.045004 C 164.703595 51.045004 161.101957 50.826092 150.896446 49.934803 C 147.013349 49.71589 143.354376 49.491765 140.638814 49.491765 C 134.535314 49.491765 130.876341 52.874491 130.876341 58.753866 C 130.876341 62.412838 130.876341 62.636963 134.759439 68.792585 C 137.256088 72.618349 137.699126 76.277321 137.699126 89.198394 Z M 205.405756 116.484322 C 205.405756 107.832051 206.958995 106.002564 214.725191 106.002564 C 230.361826 106.002564 239.014097 117.370398 239.014097 138.052454 C 239.014097 158.015225 230.137701 169.607184 214.944103 169.607184 C 206.740082 169.607184 205.405756 168.496983 205.405756 161.455285 Z M 418.001446 194.172337 C 429.317158 194.172337 433.419168 196.668987 433.419168 204.153723 C 433.419168 207.317535 432.97613 208.479858 430.036443 212.305622 C 428.206957 214.802271 427.539794 216.855883 427.539794 219.128407 C 427.539794 225.284029 431.589682 229.386039 437.302266 229.386039 C 439.074418 229.386039 442.07144 229.109792 445.454165 228.885667 C 450.890502 228.442629 461.591173 227.999591 469.300034 227.999591 C 476.78477 227.999591 490.649253 228.442629 496.804875 228.885667 C 501.13101 229.109792 504.956774 229.386039 507.005173 229.386039 C 512.44151 229.386039 515.657444 225.94598 515.657444 220.071817 C 515.657444 217.074795 514.995493 215.521556 512.222597 211.638459 C 507.229298 204.377848 506.78626 202.991399 503.17941 185.968316 C 497.915076 161.67941 482.273229 110.771738 472.015596 84.929593 C 460.705097 55.595265 456.597874 49.491765 449.113138 49.491765 C 447.283651 49.491765 444.568089 49.71589 441.352155 49.934803 C 435.691693 50.601966 426.601596 51.045004 416.839123 51.045004 C 404.361088 51.045004 391.387893 50.601966 386.61872 49.934803 C 384.12207 49.71589 381.406508 49.491765 380.296307 49.491765 C 373.254609 49.491765 369.590424 54.260939 360.500327 74.67196 C 348.241205 101.728551 332.547236 149.644413 324.619462 183.69058 C 321.903899 195.501451 320.517451 200.995122 320.074413 201.881198 C 318.46384 206.426247 318.46384 206.650372 314.195038 211.419546 C 311.698389 214.578146 310.536066 216.855883 310.536066 219.847692 C 310.536066 225.502942 314.195038 229.386039 319.850288 229.386039 C 321.460861 229.386039 324.395337 229.109792 327.778062 228.885667 C 332.828695 228.442629 344.639567 227.999591 351.900178 227.999591 C 358.446716 227.999591 364.82125 228.223716 369.814549 228.885667 C 372.530112 229.109792 375.026761 229.386039 376.637334 229.386039 C 380.958258 229.386039 384.340983 225.284029 384.340983 219.847692 C 384.340983 216.188719 383.897945 214.802271 381.182383 211.195421 C 379.352897 208.479858 378.685734 206.650372 378.685734 204.153723 C 378.685734 197.33615 382.792956 194.172337 392.107179 194.172337 Z M 400.702116 147.814927 C 393.21738 147.814927 390.496605 146.204353 390.496605 141.435179 C 390.496605 136.447093 394.103456 123.969058 399.373002 111.047985 C 402.97464 102.176801 404.585213 99.899065 407.300776 99.899065 C 409.797425 99.899065 410.464588 100.790353 415.233762 113.763548 C 418.892734 123.52602 422.051335 136.447093 422.051335 141.216267 C 422.051335 145.761315 419.111647 147.814927 412.956025 147.814927 Z M 527.223342 190.070327 L 526.999217 196.225949 L 526.999217 202.105323 C 526.780304 205.263924 526.055807 207.536448 524.283655 210.53347 C 520.400557 216.407632 520.400557 216.631757 520.400557 220.071817 C 520.400557 225.502942 524.283655 229.386039 529.495866 229.386039 C 531.10644 229.386039 533.822002 229.109792 536.761689 228.885667 C 541.973901 228.442629 549.458637 227.999591 554.947096 227.999591 C 559.71627 227.999591 561.769881 228.223716 569.254617 228.885667 C 572.194304 229.109792 575.358117 229.386039 577.406516 229.386039 C 583.562138 229.386039 587.168989 225.94598 587.168989 220.29073 C 587.168989 216.631757 586.944864 216.407632 583.343225 210.53347 C 581.513739 207.536448 580.846576 205.263924 580.622451 202.105323 C 580.622451 199.827587 580.622451 195.725576 580.346204 190.070327 L 580.346204 165.062135 L 580.127291 158.515597 L 580.127291 153.746423 C 579.903166 152.359975 579.684253 151.249774 579.684253 150.754614 C 579.684253 148.97725 581.070701 147.814927 583.1191 147.814927 C 585.115377 147.814927 586.725951 149.201375 588.112399 152.5841 L 609.237493 200.270625 C 612.620218 207.760573 615.784031 210.752383 621.27249 210.752383 C 626.708826 210.752383 630.367799 207.760573 633.750524 200.270625 L 654.656706 154.856625 C 657.372268 148.701003 658.758716 146.923638 660.979118 146.923638 C 662.365567 146.923638 663.251643 147.814927 663.251643 149.420288 L 663.027518 153.527511 C 662.808605 154.413587 662.808605 156.018948 662.808605 157.572187 L 662.808605 189.403164 L 662.58448 195.282538 L 662.58448 201.43816 C 662.365567 204.596761 661.474278 207.09341 659.868917 209.808972 C 655.98582 215.964594 655.98582 216.188719 655.98582 219.571445 C 655.98582 225.502942 659.644792 229.610165 664.857004 229.610165 C 666.243452 229.610165 668.964227 229.386039 671.903914 229.109792 C 675.781799 228.666754 688.483959 227.999591 694.639581 227.999591 C 699.627668 227.999591 713.935189 228.442629 718.261325 228.885667 C 721.868175 229.109792 725.08411 229.386039 726.856262 229.386039 C 732.344721 229.386039 736.175696 225.502942 736.175696 220.071817 C 736.175696 216.855883 735.951571 216.188719 732.344721 210.53347 C 730.072196 206.650372 729.571824 204.820886 729.571824 197.998101 L 729.352911 190.070327 L 729.352911 89.198394 C 729.352911 75.834283 729.853284 72.394223 732.125808 68.56846 C 735.951571 62.855876 736.175696 61.9698 736.175696 58.753866 C 736.175696 53.317529 732.344721 49.491765 726.856262 49.491765 C 724.807863 49.491765 721.425137 49.71589 718.042412 49.934803 C 711.219627 50.601966 703.734891 51.045004 695.968695 51.045004 C 688.040921 51.045004 681.885299 50.826092 676.005925 49.934803 C 673.066237 49.71589 670.293341 49.491765 668.521189 49.491765 C 663.251643 49.491765 659.425879 52.655578 656.486192 59.697276 L 636.690212 103.28179 C 634.417688 108.275089 633.083361 109.88045 630.810837 109.88045 C 628.538313 109.88045 626.708826 107.832051 624.43109 103.28179 L 605.359607 62.412838 C 601.033472 53.317529 597.207708 49.491765 591.714037 49.491765 C 590.827961 49.491765 588.555437 49.71589 586.058788 49.934803 C 581.513739 50.601966 574.466829 51.045004 567.206218 51.045004 C 559.940395 51.045004 548.791474 50.601966 541.087825 49.934803 C 536.761689 49.71589 532.654467 49.491765 530.381942 49.491765 C 524.283655 49.491765 520.400557 53.098616 520.400557 59.030113 C 520.400557 62.412838 520.400557 62.636963 524.283655 68.792585 C 526.556179 72.394223 526.999217 74.447835 526.999217 81.046495 L 527.223342 89.198394 Z M 849.311963 194.172337 C 860.627675 194.172337 864.729685 196.668987 864.729685 204.153723 C 864.729685 207.317535 864.286647 208.479858 861.34696 212.305622 C 859.517474 214.802271 858.85031 216.855883 858.85031 219.128407 C 858.85031 225.284029 862.900199 229.386039 868.612783 229.386039 C 870.384935 229.386039 873.381957 229.109792 876.764682 228.885667 C 882.201019 228.442629 892.901689 227.999591 900.61055 227.999591 C 908.095286 227.999591 921.95977 228.442629 928.115392 228.885667 C 932.441527 229.109792 936.267291 229.386039 938.31569 229.386039 C 943.752027 229.386039 946.967961 225.94598 946.967961 220.071817 C 946.967961 217.074795 946.30601 215.521556 943.533114 211.638459 C 938.539815 204.377848 938.096777 202.991399 934.489926 185.968316 C 929.225593 161.67941 913.583745 110.771738 903.326113 84.929593 C 892.015613 55.595265 887.908391 49.491765 880.423655 49.491765 C 878.594168 49.491765 875.878606 49.71589 872.662671 49.934803 C 867.00221 50.601966 857.912112 51.045004 848.14964 51.045004 C 835.671605 51.045004 822.69841 50.601966 817.929237 49.934803 C 815.432587 49.71589 812.717025 49.491765 811.606824 49.491765 C 804.565126 49.491765 800.900941 54.260939 791.810844 74.67196 C 779.551722 101.728551 763.857753 149.644413 755.929979 183.69058 C 753.214416 195.501451 751.827968 200.995122 751.379718 201.881198 C 749.774357 206.426247 749.774357 206.650372 745.505555 211.419546 C 743.008906 214.578146 741.846583 216.855883 741.846583 219.847692 C 741.846583 225.502942 745.505555 229.386039 751.160805 229.386039 C 752.766166 229.386039 755.705853 229.109792 759.088579 228.885667 C 764.139212 228.442629 775.950084 227.999591 783.210695 227.999591 C 789.757232 227.999591 796.131767 228.223716 801.125066 228.885667 C 803.840628 229.109792 806.337278 229.386039 807.947851 229.386039 C 812.268775 229.386039 815.6515 225.284029 815.6515 219.847692 C 815.6515 216.188719 815.208462 214.802271 812.4929 211.195421 C 810.663413 208.479858 809.99625 206.650372 809.99625 204.153723 C 809.99625 197.33615 814.098261 194.172337 823.417695 194.172337 Z M 832.012633 147.814927 C 824.527897 147.814927 821.807122 146.204353 821.807122 141.435179 C 821.807122 136.447093 825.413973 123.969058 830.683519 111.047985 C 834.285157 102.176801 835.89573 99.899065 838.611293 99.899065 C 841.107942 99.899065 841.769893 100.790353 846.539066 113.763548 C 850.203251 123.52602 853.361852 136.447093 853.361852 141.216267 C 853.361852 145.761315 850.422164 147.814927 844.266542 147.814927 Z M 1024.411002 46.275831 C 979.44004 46.275831 951.492161 69.454536 951.492161 106.72185 C 951.492161 133.28328 965.132519 148.97725 995.352922 157.353274 C 1009.884568 161.455285 1014.872655 165.338382 1014.872655 172.322746 C 1014.872655 178.702493 1010.546519 182.585591 1003.285908 182.585591 C 995.352922 182.585591 983.985089 179.364444 974.889779 174.87673 C 955.594172 164.83801 955.594172 164.83801 952.878609 164.83801 C 948.771386 164.83801 945.112414 168.721108 945.112414 173.047243 C 945.112414 174.87673 945.555452 177.592292 946.498862 180.750892 C 949.657462 190.956403 951.492161 201.881198 951.492161 211.862584 C 951.492161 221.625056 951.935199 223.897581 954.207723 226.170105 C 955.813084 227.999591 959.419935 229.386039 962.63587 229.386039 C 964.908394 229.386039 967.180918 228.666754 969.458655 227.332428 C 973.060293 225.284029 973.727456 225.059904 974.889779 225.059904 C 975.99998 225.059904 977.386429 225.284029 979.215915 225.727067 C 993.966474 229.829077 1015.758731 232.99289 1028.236766 232.99289 C 1043.044659 232.99289 1060.953819 228.885667 1073.932226 222.344341 C 1092.289635 213.473157 1103.433344 194.615375 1103.433344 172.823118 C 1103.433344 161.012247 1100.493656 151.249774 1094.338034 143.264666 C 1086.853298 133.507405 1075.70959 128.071069 1051.863721 122.58261 C 1038.942649 119.642922 1034.173475 115.817159 1034.173475 108.775461 C 1034.173475 102.176801 1038.499611 98.512616 1045.984347 98.512616 C 1053.693208 98.512616 1064.836916 101.009266 1074.599389 104.668238 C 1085.967222 109.218499 1087.520461 109.661537 1090.293358 109.661537 C 1094.119121 109.661537 1097.553969 106.278812 1097.553969 102.395714 C 1097.553969 100.790353 1096.834684 98.069578 1095.724483 94.910978 C 1093.233045 87.86928 1091.398347 76.501446 1091.398347 67.62505 C 1091.398347 66.071811 1091.398347 64.685362 1091.622472 63.580374 C 1091.846597 61.750887 1091.846597 60.364439 1091.846597 59.473151 C 1091.846597 54.260939 1086.853298 50.158928 1080.254638 50.158928 C 1078.477274 50.158928 1076.871913 50.601966 1074.818302 51.488042 C 1072.326864 52.874491 1071.659701 53.098616 1070.716291 53.098616 C 1069.60609 53.098616 1068.219642 52.874491 1066.666403 52.431453 C 1050.529395 48.329442 1037.113162 46.275831 1024.411002 46.275831 Z M 1024.411002 46.275831 " stroke="#000000" stroke-width="35.490936" stroke-opacity="1" stroke-miterlimit="4"/></g><g fill="#ff1731" fill-opacity="1"><g transform="translate(135.542234, 196.949525)"><g><path d="M 10.722656 -28.429688 C 10.722656 -18.726562 10.382812 -16 8.511719 -13.109375 C 5.789062 -8.683594 5.617188 -8.339844 5.617188 -5.957031 C 5.617188 -1.703125 8.339844 1.019531 12.425781 1.019531 C 13.789062 1.019531 16.34375 0.851562 19.234375 0.679688 C 23.492188 0.339844 30.472656 0 34.898438 0 C 38.132812 0 47.324219 0.339844 56.6875 0.679688 C 61.113281 0.851562 64.515625 1.019531 66.390625 1.019531 C 79.835938 1.019531 92.773438 -1.703125 103.667969 -6.808594 C 125.96875 -17.363281 138.054688 -38.472656 138.054688 -67.070312 C 138.054688 -93.796875 126.140625 -115.414062 105.882812 -125.117188 C 94.304688 -130.734375 80.175781 -133.800781 64.6875 -133.800781 C 61.964844 -133.800781 58.046875 -133.628906 52.769531 -133.289062 C 43.238281 -132.777344 39.492188 -132.609375 35.40625 -132.609375 C 30.980469 -132.609375 28.257812 -132.777344 20.597656 -133.457031 C 17.703125 -133.628906 14.980469 -133.800781 12.9375 -133.800781 C 8.339844 -133.800781 5.617188 -131.246094 5.617188 -126.820312 C 5.617188 -124.097656 5.617188 -123.925781 8.511719 -119.328125 C 10.382812 -116.4375 10.722656 -113.710938 10.722656 -104.007812 Z M 61.453125 -83.582031 C 61.453125 -90.050781 62.644531 -91.414062 68.433594 -91.414062 C 80.175781 -91.414062 86.644531 -82.902344 86.644531 -67.410156 C 86.644531 -52.429688 80.007812 -43.75 68.601562 -43.75 C 62.472656 -43.75 61.453125 -44.601562 61.453125 -49.875 Z M 61.453125 -83.582031 "/></g></g></g><g fill="#ff1731" fill-opacity="1"><g transform="translate(277.332953, 196.949525)"><g><path d="M 78.984375 -25.363281 C 87.496094 -25.363281 90.5625 -23.492188 90.5625 -17.875 C 90.5625 -15.492188 90.222656 -14.640625 88.007812 -11.746094 C 86.644531 -9.875 86.136719 -8.339844 86.136719 -6.640625 C 86.136719 -2.042969 89.199219 1.019531 93.457031 1.019531 C 94.816406 1.019531 97.03125 0.851562 99.582031 0.679688 C 103.667969 0.339844 111.667969 0 117.457031 0 C 123.074219 0 133.457031 0.339844 138.054688 0.679688 C 141.289062 0.851562 144.183594 1.019531 145.714844 1.019531 C 149.800781 1.019531 152.183594 -1.53125 152.183594 -5.957031 C 152.183594 -8.171875 151.671875 -9.363281 149.628906 -12.257812 C 145.886719 -17.703125 145.546875 -18.726562 142.820312 -31.492188 C 138.90625 -49.707031 127.160156 -87.835938 119.5 -107.242188 C 110.988281 -129.203125 107.925781 -133.800781 102.308594 -133.800781 C 100.945312 -133.800781 98.902344 -133.628906 96.519531 -133.457031 C 92.265625 -132.949219 85.453125 -132.609375 78.136719 -132.609375 C 68.773438 -132.609375 59.070312 -132.949219 55.496094 -133.457031 C 53.621094 -133.628906 51.578125 -133.800781 50.726562 -133.800781 C 45.449219 -133.800781 42.726562 -130.226562 35.917969 -114.902344 C 26.726562 -94.648438 14.980469 -58.730469 9.023438 -33.195312 C 6.980469 -24.34375 5.957031 -20.257812 5.617188 -19.578125 C 4.425781 -16.171875 4.425781 -16 1.191406 -12.425781 C -0.679688 -10.042969 -1.53125 -8.339844 -1.53125 -6.128906 C -1.53125 -1.871094 1.191406 1.019531 5.449219 1.019531 C 6.640625 1.019531 8.851562 0.851562 11.40625 0.679688 C 15.148438 0.339844 24.003906 0 29.449219 0 C 34.386719 0 39.152344 0.171875 42.898438 0.679688 C 44.941406 0.851562 46.8125 1.019531 48.003906 1.019531 C 51.238281 1.019531 53.792969 -2.042969 53.792969 -6.128906 C 53.792969 -8.851562 53.453125 -9.875 51.410156 -12.597656 C 50.046875 -14.640625 49.535156 -16 49.535156 -17.875 C 49.535156 -22.980469 52.601562 -25.363281 59.578125 -25.363281 Z M 66.046875 -60.089844 C 60.429688 -60.089844 58.386719 -61.28125 58.386719 -64.855469 C 58.386719 -68.601562 61.113281 -77.964844 65.027344 -87.667969 C 67.75 -94.304688 68.941406 -96.007812 70.984375 -96.007812 C 72.859375 -96.007812 73.367188 -95.328125 76.941406 -85.625 C 79.667969 -78.304688 82.050781 -68.601562 82.050781 -65.027344 C 82.050781 -61.621094 79.835938 -60.089844 75.242188 -60.089844 Z M 66.046875 -60.089844 "/></g></g></g><g fill="#ff1731" fill-opacity="1"><g transform="translate(427.63453, 196.949525)"><g><path d="M 10.554688 -28.429688 L 10.382812 -23.832031 L 10.382812 -19.40625 C 10.214844 -17.023438 9.703125 -15.320312 8.339844 -13.109375 C 5.449219 -8.683594 5.449219 -8.511719 5.449219 -5.957031 C 5.449219 -1.871094 8.339844 1.019531 12.257812 1.019531 C 13.449219 1.019531 15.492188 0.851562 17.703125 0.679688 C 21.617188 0.339844 27.238281 0 31.320312 0 C 34.898438 0 36.429688 0.171875 42.046875 0.679688 C 44.257812 0.851562 46.640625 1.019531 48.175781 1.019531 C 52.769531 1.019531 55.496094 -1.53125 55.496094 -5.789062 C 55.496094 -8.511719 55.324219 -8.683594 52.601562 -13.109375 C 51.238281 -15.320312 50.726562 -17.023438 50.558594 -19.40625 C 50.558594 -21.109375 50.558594 -24.171875 50.386719 -28.429688 L 50.386719 -47.152344 L 50.21875 -52.089844 L 50.21875 -55.664062 C 50.046875 -56.6875 49.875 -57.539062 49.875 -57.878906 C 49.875 -59.238281 50.898438 -60.089844 52.429688 -60.089844 C 53.960938 -60.089844 55.152344 -59.070312 56.175781 -56.515625 L 72.007812 -20.769531 C 74.558594 -15.148438 76.941406 -12.9375 81.027344 -12.9375 C 85.113281 -12.9375 87.835938 -15.148438 90.390625 -20.769531 L 106.050781 -54.8125 C 108.09375 -59.410156 109.117188 -60.773438 110.820312 -60.773438 C 111.839844 -60.773438 112.519531 -60.089844 112.519531 -58.898438 L 112.351562 -55.835938 C 112.179688 -55.152344 112.179688 -53.960938 112.179688 -52.769531 L 112.179688 -28.9375 L 112.011719 -24.511719 L 112.011719 -19.917969 C 111.839844 -17.535156 111.160156 -15.660156 109.96875 -13.617188 C 107.074219 -9.023438 107.074219 -8.851562 107.074219 -6.296875 C 107.074219 -1.871094 109.796875 1.191406 113.710938 1.191406 C 114.734375 1.191406 116.777344 1.019531 118.988281 0.851562 C 121.882812 0.511719 131.417969 0 136.011719 0 C 139.757812 0 150.480469 0.339844 153.714844 0.679688 C 156.441406 0.851562 158.824219 1.019531 160.183594 1.019531 C 164.269531 1.019531 167.164062 -1.871094 167.164062 -5.957031 C 167.164062 -8.339844 166.992188 -8.851562 164.269531 -13.109375 C 162.566406 -16 162.226562 -17.363281 162.226562 -22.46875 L 162.058594 -28.429688 L 162.058594 -104.007812 C 162.058594 -114.054688 162.398438 -116.605469 164.101562 -119.5 C 166.992188 -123.757812 167.164062 -124.4375 167.164062 -126.820312 C 167.164062 -130.90625 164.269531 -133.800781 160.183594 -133.800781 C 158.652344 -133.800781 156.097656 -133.628906 153.546875 -133.457031 C 148.4375 -132.949219 142.820312 -132.609375 137.035156 -132.609375 C 131.074219 -132.609375 126.480469 -132.777344 122.054688 -133.457031 C 119.839844 -133.628906 117.796875 -133.800781 116.4375 -133.800781 C 112.519531 -133.800781 109.628906 -131.417969 107.414062 -126.140625 L 92.605469 -93.457031 C 90.902344 -89.710938 89.878906 -88.519531 88.179688 -88.519531 C 86.476562 -88.519531 85.113281 -90.050781 83.410156 -93.457031 L 69.113281 -124.097656 C 65.878906 -130.90625 62.984375 -133.800781 58.898438 -133.800781 C 58.21875 -133.800781 56.515625 -133.628906 54.644531 -133.457031 C 51.238281 -132.949219 45.960938 -132.609375 40.515625 -132.609375 C 35.066406 -132.609375 26.726562 -132.949219 20.9375 -133.457031 C 17.703125 -133.628906 14.640625 -133.800781 12.9375 -133.800781 C 8.339844 -133.800781 5.449219 -131.074219 5.449219 -126.648438 C 5.449219 -124.097656 5.449219 -123.925781 8.339844 -119.328125 C 10.042969 -116.605469 10.382812 -115.074219 10.382812 -110.136719 L 10.554688 -104.007812 Z M 10.554688 -28.429688 "/></g></g></g><g fill="#ff1731" fill-opacity="1"><g transform="translate(600.574933, 196.949525)"><g><path d="M 78.984375 -25.363281 C 87.496094 -25.363281 90.5625 -23.492188 90.5625 -17.875 C 90.5625 -15.492188 90.222656 -14.640625 88.007812 -11.746094 C 86.644531 -9.875 86.136719 -8.339844 86.136719 -6.640625 C 86.136719 -2.042969 89.199219 1.019531 93.457031 1.019531 C 94.816406 1.019531 97.03125 0.851562 99.582031 0.679688 C 103.667969 0.339844 111.667969 0 117.457031 0 C 123.074219 0 133.457031 0.339844 138.054688 0.679688 C 141.289062 0.851562 144.183594 1.019531 145.714844 1.019531 C 149.800781 1.019531 152.183594 -1.53125 152.183594 -5.957031 C 152.183594 -8.171875 151.671875 -9.363281 149.628906 -12.257812 C 145.886719 -17.703125 145.546875 -18.726562 142.820312 -31.492188 C 138.90625 -49.707031 127.160156 -87.835938 119.5 -107.242188 C 110.988281 -129.203125 107.925781 -133.800781 102.308594 -133.800781 C 100.945312 -133.800781 98.902344 -133.628906 96.519531 -133.457031 C 92.265625 -132.949219 85.453125 -132.609375 78.136719 -132.609375 C 68.773438 -132.609375 59.070312 -132.949219 55.496094 -133.457031 C 53.621094 -133.628906 51.578125 -133.800781 50.726562 -133.800781 C 45.449219 -133.800781 42.726562 -130.226562 35.917969 -114.902344 C 26.726562 -94.648438 14.980469 -58.730469 9.023438 -33.195312 C 6.980469 -24.34375 5.957031 -20.257812 5.617188 -19.578125 C 4.425781 -16.171875 4.425781 -16 1.191406 -12.425781 C -0.679688 -10.042969 -1.53125 -8.339844 -1.53125 -6.128906 C -1.53125 -1.871094 1.191406 1.019531 5.449219 1.019531 C 6.640625 1.019531 8.851562 0.851562 11.40625 0.679688 C 15.148438 0.339844 24.003906 0 29.449219 0 C 34.386719 0 39.152344 0.171875 42.898438 0.679688 C 44.941406 0.851562 46.8125 1.019531 48.003906 1.019531 C 51.238281 1.019531 53.792969 -2.042969 53.792969 -6.128906 C 53.792969 -8.851562 53.453125 -9.875 51.410156 -12.597656 C 50.046875 -14.640625 49.535156 -16 49.535156 -17.875 C 49.535156 -22.980469 52.601562 -25.363281 59.578125 -25.363281 Z M 66.046875 -60.089844 C 60.429688 -60.089844 58.386719 -61.28125 58.386719 -64.855469 C 58.386719 -68.601562 61.113281 -77.964844 65.027344 -87.667969 C 67.75 -94.304688 68.941406 -96.007812 70.984375 -96.007812 C 72.859375 -96.007812 73.367188 -95.328125 76.941406 -85.625 C 79.667969 -78.304688 82.050781 -68.601562 82.050781 -65.027344 C 82.050781 -61.621094 79.835938 -60.089844 75.242188 -60.089844 Z M 66.046875 -60.089844 "/></g></g></g><g fill="#ff1731" fill-opacity="1"><g transform="translate(750.87651, 196.949525)"><g><path d="M 59.921875 -136.183594 C 26.214844 -136.183594 5.277344 -118.820312 5.277344 -90.902344 C 5.277344 -70.984375 15.492188 -59.238281 38.132812 -52.941406 C 49.027344 -49.875 52.769531 -46.984375 52.769531 -41.707031 C 52.769531 -36.941406 49.535156 -34.046875 44.089844 -34.046875 C 38.132812 -34.046875 29.621094 -36.429688 22.8125 -39.832031 C 8.339844 -47.324219 8.339844 -47.324219 6.296875 -47.324219 C 3.234375 -47.324219 0.511719 -44.429688 0.511719 -41.195312 C 0.511719 -39.832031 0.851562 -37.789062 1.53125 -35.40625 C 3.914062 -27.746094 5.277344 -19.578125 5.277344 -12.085938 C 5.277344 -4.765625 5.617188 -3.0625 7.320312 -1.363281 C 8.511719 0 11.234375 1.019531 13.617188 1.019531 C 15.320312 1.019531 17.023438 0.511719 18.726562 -0.511719 C 21.449219 -2.042969 21.960938 -2.214844 22.8125 -2.214844 C 23.660156 -2.214844 24.683594 -2.042969 26.046875 -1.703125 C 37.109375 1.363281 53.453125 3.746094 62.8125 3.746094 C 73.878906 3.746094 87.328125 0.679688 97.03125 -4.253906 C 110.820312 -10.894531 119.160156 -25.023438 119.160156 -41.367188 C 119.160156 -50.21875 116.945312 -57.539062 112.351562 -63.496094 C 106.734375 -70.816406 98.390625 -74.902344 80.519531 -78.984375 C 70.816406 -81.199219 67.238281 -84.09375 67.238281 -89.371094 C 67.238281 -94.304688 70.472656 -97.03125 76.09375 -97.03125 C 81.878906 -97.03125 90.222656 -95.15625 97.539062 -92.433594 C 106.050781 -89.03125 107.242188 -88.6875 109.285156 -88.6875 C 112.179688 -88.6875 114.734375 -91.242188 114.734375 -94.136719 C 114.734375 -95.328125 114.222656 -97.371094 113.371094 -99.753906 C 111.5 -105.03125 110.136719 -113.542969 110.136719 -120.179688 C 110.136719 -121.371094 110.136719 -122.394531 110.308594 -123.246094 C 110.476562 -124.605469 110.476562 -125.628906 110.476562 -126.308594 C 110.476562 -130.226562 106.734375 -133.289062 101.796875 -133.289062 C 100.433594 -133.289062 99.242188 -132.949219 97.710938 -132.265625 C 95.839844 -131.246094 95.328125 -131.074219 94.648438 -131.074219 C 93.796875 -131.074219 92.773438 -131.246094 91.582031 -131.585938 C 79.496094 -134.652344 69.453125 -136.183594 59.921875 -136.183594 Z M 59.921875 -136.183594 "/></g></g></g><g clip-path="url(#cb9cf28920)"><path stroke-linecap="butt" transform="matrix(0.748063, -0.0454425, 0.0454425, 0.748063, 264.727863, 189.323755)" fill="none" stroke-linejoin="miter" d="M 125.422077 106.48955 L 123.43927 106.207225 L 123.063417 106.20528 C 121.486537 106.203482 119.869226 105.577832 118.201712 104.317292 C 116.534199 103.056751 115.698617 100.823272 115.70017 97.617169 C 115.696837 94.405547 117.443237 90.757147 120.939687 86.666766 C 124.430934 82.576069 129.166045 78.81158 135.144388 75.383705 C 141.122732 71.955829 148.567826 69.139236 157.469265 66.933293 C 166.375591 64.732869 175.768606 63.632483 185.64831 63.632135 C 205.851521 63.632289 221.630173 67.614226 232.989786 75.57306 C 244.349399 83.531894 250.029259 93.87149 250.029999 106.581444 C 250.028571 114.513301 248.267539 122.442705 244.7417 130.369338 C 241.220747 138.30149 236.499642 145.617667 230.583587 152.318185 C 224.667216 159.023906 217.712581 165.285363 209.719683 171.102556 C 201.726468 176.924952 193.357522 181.88381 184.607957 185.973612 C 165.730838 194.659572 147.666102 198.998111 130.423523 199.000264 C 121.92757 199.001122 116.580904 198.305579 114.37769 196.923726 C 113.558569 196.482331 112.758872 195.807133 111.968511 194.892299 C 111.183036 193.982984 110.567789 193.365987 110.127341 193.052032 C 108.935721 192.295586 108.334331 190.676842 108.333891 188.191229 C 108.333452 185.705616 108.585072 183.454632 109.088436 181.443478 C 110.980629 174.707395 119.461132 160.089726 134.52963 137.595672 C 149.603646 115.096732 162.204209 96.953968 172.336205 83.172898 C 173.030657 82.22816 176.587012 81.5356 183.005271 81.09522 C 185.647595 81.093856 187.474177 81.283143 188.479814 81.662763 C 189.485768 82.037181 189.992854 82.71549 189.990983 83.691857 C 189.989112 84.668224 188.353668 87.435655 185.084335 91.999352 C 181.809799 96.562734 171.300542 112.514051 153.551045 139.858189 C 135.806751 167.202644 126.932501 181.253325 126.933499 182.010549 C 126.929609 182.762255 129.715978 183.140391 135.287717 183.139438 C 140.853938 183.143372 147.714055 181.962226 155.867751 179.601202 C 164.016244 177.239862 171.676736 174.143932 178.849859 170.303006 C 186.028184 166.462397 192.883241 162.012084 199.43127 156.942611 C 205.97378 151.878025 211.577777 146.704208 216.23317 141.415327 C 226.429811 129.83657 231.524822 119.545782 231.528291 110.548798 C 231.526874 101.546294 227.422097 93.902846 219.209391 87.60773 C 210.996368 81.317816 199.746597 78.169729 185.459763 78.168671 C 175.830733 78.168581 166.736091 79.772722 158.18104 82.981409 C 149.620471 86.194982 143.734121 89.054046 140.526245 91.574524 C 137.318686 94.089799 135.711612 95.78848 135.710227 96.670884 C 135.711103 97.172232 136.087393 97.42485 136.844618 97.423853 L 140.900595 96.672873 C 141.469893 96.670903 141.754603 96.797857 141.755041 97.048531 C 141.755478 97.299205 141.216862 97.741671 140.149912 98.371359 C 139.077759 99.000731 138.211815 99.673961 137.551447 100.401453 C 136.891396 101.123743 135.238519 102.287016 132.59802 103.891589 C 129.952319 105.495846 127.560232 106.363567 125.422077 106.48955 Z M 301.661529 127.070004 C 303.551831 127.069954 305.484581 127.918417 307.470184 129.616026 C 309.450585 131.313318 310.441565 133.911322 310.44344 137.404833 C 310.445315 140.898344 309.214485 145.42922 306.761357 150.998093 C 304.308228 156.566966 300.940678 162.231723 296.659023 167.987162 C 292.382255 173.74812 287.677656 179.159335 282.550112 184.226328 C 277.417366 189.293004 271.880517 193.447422 265.934361 196.689268 C 259.988522 199.92591 254.589662 201.550907 249.743931 201.548966 C 244.8982 201.547025 241.011866 200.021153 238.084927 196.97135 C 235.158305 193.916344 233.698212 189.67108 233.694877 184.224519 C 233.696429 178.783477 235.033887 172.755195 237.706618 166.150076 C 240.384869 159.540072 243.830798 153.702534 248.044406 148.637463 C 252.263217 143.572708 256.826593 139.024958 261.734217 134.999414 C 271.98967 126.750529 280.991805 122.629073 288.730533 122.629213 C 292.192513 122.630644 294.804132 123.478572 296.565074 125.178199 C 297.193887 125.743801 297.507868 126.248504 297.51222 126.692623 L 297.509303 127.256402 C 298.388886 127.132292 299.776746 127.065168 301.661529 127.070004 Z M 292.131481 139.62396 L 291.468535 139.620241 C 289.264812 139.622139 288.166329 138.020195 288.162995 134.808573 C 283.569933 136.320643 278.756782 138.962922 273.723225 142.740612 C 268.684781 146.512784 264.188894 150.981085 260.219955 156.144568 C 252.167619 166.46458 248.076786 175.181939 247.952974 182.291758 C 247.952953 185.816485 249.240287 187.576113 251.819863 187.576159 C 254.399439 187.576206 258.241451 185.877523 263.335495 182.479478 C 268.434741 179.081749 273.486264 174.234677 278.489745 167.943465 C 283.493543 161.64705 287.235025 156.187771 289.724597 151.566262 C 292.209283 146.939234 293.450008 143.792741 293.452292 142.121898 C 293.449057 140.455941 293.008681 139.625029 292.131481 139.62396 Z M 357.641094 184.464202 C 357.640076 187.231705 359.529868 188.615406 363.305269 188.614989 C 365.320749 188.617322 367.852067 187.606625 370.903791 185.593622 C 373.955516 183.580619 376.710715 181.377282 379.16387 178.988499 C 385.709102 172.503743 389.425521 169.262216 390.302722 169.263285 C 391.94235 169.263672 392.759625 171.626585 392.760383 176.341935 C 392.760824 181.062486 391.279344 184.304012 388.321145 186.066828 C 379.32176 194.183142 372.369045 199.123595 367.457797 200.887871 C 364.690319 201.832003 361.640076 202.273329 358.301866 202.211532 C 354.969174 202.144849 351.662688 200.701197 348.38856 197.865285 C 345.119318 195.034892 343.480174 191.588133 343.481216 187.530842 C 343.482258 183.473552 344.551029 178.859726 346.692097 173.700086 C 348.833166 168.540445 351.018117 164.119748 353.252154 160.438308 C 355.48619 156.756869 358.242312 152.475304 361.514999 147.598501 C 364.782484 142.721382 366.517921 139.683268 366.705384 138.488416 L 366.513228 138.299201 C 364.438914 138.491724 359.292431 142.581085 351.083869 150.57312 C 342.870104 158.564838 336.087375 165.520796 330.735998 171.435791 C 325.389824 177.351103 318.998896 185.249902 311.573938 195.127618 C 309.498167 197.83697 307.797179 199.190528 306.476175 199.188608 C 305.155171 199.186689 303.37923 198.765497 301.143779 197.914311 C 298.908329 197.063125 297.540745 196.452645 297.036455 196.072149 C 296.531849 195.696855 296.284408 195.128311 296.283094 194.376289 C 296.282097 193.619065 296.500266 192.69239 296.94312 191.591379 C 297.385974 190.490368 297.807045 189.576019 298.216423 188.854168 C 298.626116 188.127113 299.304985 187.009108 300.247825 185.499837 C 301.190665 183.990566 303.065964 180.799072 305.863633 175.919522 C 308.666504 171.040288 312.957518 163.755425 318.747079 154.065563 C 324.541843 144.376017 327.999125 138.523504 329.134535 136.50897 C 331.522826 132.351272 333.476457 129.331635 334.985337 127.444226 C 337.819401 123.856676 342.601848 122.063688 349.332678 122.065263 C 350.847127 122.063269 351.599173 123.007106 351.599224 124.897408 C 351.602435 127.853153 348.861898 133.425454 343.38865 141.604537 L 339.424331 147.551573 C 350.309371 135.471565 359.49977 127.821153 366.989378 124.615627 C 370.635879 123.040835 373.926439 122.253802 376.850652 122.253897 C 379.780068 122.254308 382.108387 123.03803 383.84018 124.615784 C 385.567087 126.188019 386.432377 127.932453 386.435733 129.854286 C 386.434203 131.770601 385.772354 134.069771 384.450817 136.741391 C 383.128965 139.418213 381.792963 141.812198 380.437925 143.917826 C 379.08809 146.02377 377.307775 148.683186 375.107385 151.896706 C 372.902108 155.104707 371.70998 156.849482 371.520279 157.135602 C 371.330894 157.416519 370.841265 158.170049 370.056278 159.401709 C 369.266404 160.627851 368.684684 161.521997 368.310801 162.08935 C 367.931715 162.656388 367.302369 163.646855 366.422446 165.065956 C 365.537637 166.479538 364.834166 167.65871 364.296425 168.602524 C 363.763886 169.546654 363.102984 170.712747 362.314035 172.095599 C 361.530288 173.478768 360.898705 174.677972 360.425122 175.683124 C 359.956741 176.688592 359.466747 177.791961 358.965862 178.988661 C 358.080154 181.190683 357.64051 183.012501 357.641094 184.464202 Z M 502.447822 57.493444 C 503.643647 57.492981 504.59174 57.874328 505.282328 58.626446 C 505.972599 59.383768 506.322805 60.151762 506.321906 60.940202 C 506.321007 61.728642 505.705786 63.174266 504.481129 65.282593 C 503.251271 67.390603 500.43425 71.986999 496.030383 79.066579 C 491.626516 86.146158 488.197969 91.697551 485.739223 95.725646 C 471.45654 118.951494 460.253709 138.583836 452.1353 154.633392 C 444.017206 170.677747 439.955718 180.373369 439.956984 183.704966 L 439.957982 184.462191 C 439.957935 187.041767 440.903063 188.33153 442.788162 188.331164 C 444.678464 188.331114 446.956409 187.451237 449.632402 185.692165 C 452.308711 183.927891 454.653171 182.039022 456.665782 180.025558 C 458.678392 178.012093 460.711351 175.921537 462.754569 173.748056 C 464.80299 171.57489 466.044713 170.303092 466.485574 169.922571 C 466.926119 169.547252 467.491187 169.35704 468.185664 169.357453 C 469.250791 169.359494 469.94612 170.033573 470.260612 171.389464 C 470.57542 172.740151 470.732181 174.629529 470.73121 177.052394 C 470.73024 179.47526 470.545086 181.061889 470.165028 181.816853 C 468.342339 185.345738 464.327013 189.639581 458.12914 194.704216 C 451.931267 199.768851 446.064511 202.305352 440.524304 202.302998 C 431.0832 202.303881 426.365101 198.309779 426.365119 190.315175 C 426.364239 185.343949 428.253247 178.832211 432.027256 170.774442 C 426.931343 177.383793 421.738135 183.015974 416.452835 187.671303 C 406.632944 196.228625 398.106751 200.509538 390.869371 200.508523 C 386.843296 200.509377 383.869146 199.096357 381.947238 196.264261 C 380.030532 193.432481 379.072079 189.353457 379.071248 184.037594 C 379.070417 178.721731 381.144337 172.34655 385.302781 164.923087 C 389.456339 157.494106 394.629829 150.811141 400.829088 144.864103 C 407.028346 138.917065 413.904918 133.940655 421.452969 129.944964 C 429.006223 125.949588 435.962782 123.954474 442.317759 123.954105 C 444.333556 123.951234 446.692241 125.180655 449.399647 127.632279 C 451.220198 124.740325 454.59013 118.950389 459.498723 110.267041 C 474.915502 84.274638 485.111167 68.413929 490.085719 62.684916 C 492.729158 59.226776 496.85007 57.492817 502.447822 57.493444 Z M 443.638579 136.509267 C 434.576514 138.522689 426.143191 142.736138 418.338292 149.154817 C 410.538597 155.573812 404.684025 162.29373 400.780096 169.309687 C 396.881369 176.325959 394.928785 180.875652 394.927863 182.95388 C 394.927257 185.026906 395.370599 186.066871 396.253002 186.068256 C 400.028403 186.067839 409.370893 177.632949 424.285359 160.769104 C 431.714039 152.463381 438.163483 144.374929 443.638579 136.509267 Z M 528.406745 128.390023 C 528.410419 132.541593 526.72645 136.193786 523.360357 139.341714 C 519.99458 142.48444 516.170558 144.058893 511.888606 144.059869 C 510.504855 144.059359 509.590336 143.727048 509.149936 143.068455 C 508.709536 142.409862 508.490831 141.540198 508.492872 140.475071 C 508.490027 139.404425 508.615983 138.362491 508.870109 137.359673 C 506.604951 138.115003 504.085279 139.27784 501.316295 140.848499 C 498.546995 142.42436 495.147278 144.75042 491.121717 147.837401 C 487.091268 150.918863 485.082402 153.214533 485.079194 154.728666 C 485.08007 155.230014 485.816605 155.483629 487.299839 155.479738 C 488.777553 155.480734 491.059704 154.961418 494.140773 153.926677 C 497.227361 152.88705 499.37913 152.365036 500.606171 152.366469 C 501.833211 152.367903 502.638986 152.427295 503.017659 152.554734 C 503.831577 152.995814 504.713058 153.957958 505.657213 155.435647 C 506.601368 156.913336 507.073544 158.080376 507.074371 158.926361 C 507.074882 159.777549 506.255227 160.892223 504.619976 162.281106 C 502.985042 163.664785 501.130065 164.716567 499.049528 165.441338 C 496.974193 166.166424 495.588473 166.714086 494.896938 167.095045 C 481.621218 174.518174 474.977329 179.618377 474.981513 182.386196 C 474.980982 187.294674 479.166103 189.747293 487.536561 189.749255 C 492.88364 189.750321 498.266114 188.051223 503.678782 184.651646 C 508.272353 181.755825 512.409042 178.816584 516.089481 175.823518 C 519.769603 172.835655 522.100814 170.992977 523.077593 170.300372 C 524.048854 169.612652 524.790519 169.26607 525.291866 169.265194 C 526.931494 169.265582 527.750106 171.090729 527.747702 174.740634 C 527.750501 178.390856 527.526134 180.794929 527.089893 181.959004 C 526.648449 183.122762 525.386523 184.55521 523.309317 186.256663 C 509.845332 197.20875 497.100715 202.679851 485.080035 202.680687 C 478.66231 202.682467 473.530556 201.801551 469.695178 200.038571 C 462.642391 196.826906 459.118195 191.918406 459.117387 185.312755 C 459.117502 176.628876 465.130656 170.049136 477.151016 165.583625 C 474.756522 164.513905 473.215621 163.146176 472.523428 161.47492 C 471.830919 159.808866 471.486814 157.135278 471.485912 153.453841 C 471.485009 149.772403 473.200072 145.86623 476.630468 141.745727 C 480.060864 137.625225 484.261151 134.240771 489.231013 131.597568 C 500.30943 125.617949 510.187819 122.630639 518.8769 122.63107 C 520.949926 122.631676 523.060245 123.135843 525.197454 124.142937 C 527.339865 125.150347 528.408105 126.562469 528.406745 128.390023 Z M 575.325795 180.121662 L 575.22894 181.630106 C 575.232661 183.2021 575.829043 184.559449 577.023921 185.692063 C 578.218798 186.824677 579.322946 187.387824 580.325325 187.391275 C 587.88133 187.390759 594.566283 186.256412 600.385389 183.988551 C 606.20938 181.726208 609.11988 179.4592 609.121775 177.193046 C 609.118929 176.1224 608.062918 175.19665 605.95926 174.41091 C 603.850399 173.624854 600.291124 172.646254 595.291527 171.480944 C 590.28641 170.32052 586.650191 169.405129 584.387439 168.745492 C 582.119485 168.085539 580.329223 167.47027 579.005934 166.904255 C 577.682645 166.33824 576.331008 165.551187 574.945821 164.542779 C 571.990999 162.467762 570.508201 159.369919 570.508149 155.244678 C 570.507781 151.12464 572.035573 147.034771 575.086323 142.974755 C 578.142276 138.915055 581.961678 135.43958 586.560452 132.544075 C 591.154024 129.648253 596.092184 127.097118 601.37982 124.896186 C 611.82612 120.554372 620.60537 118.382781 627.717572 118.381414 C 634.704278 118.382867 639.014553 119.892718 640.648081 122.916168 C 641.152275 123.985939 641.403411 125.181326 641.406695 126.502645 L 641.403292 127.160388 C 641.404242 130.497188 640.697417 133.106935 639.2825 134.994831 C 637.862065 136.887614 635.628465 138.584789 632.575864 140.096444 C 629.52358 141.602897 627.101712 142.359151 625.310577 142.360003 C 623.514238 142.36054 622.383543 142.234413 621.913289 141.981309 C 621.437517 141.733091 621.045156 141.401169 620.730689 140.990429 C 620.415906 140.584893 620.021649 140.284186 619.552805 140.093829 C 619.078443 139.908358 618.840921 139.43441 618.845126 138.677501 C 618.843813 137.925479 619.157185 137.150799 619.78461 136.363866 C 620.417239 135.577248 620.854064 134.747406 621.106123 133.864565 C 616.953897 134.050963 612.613477 135.014424 608.080294 136.744226 C 603.552314 138.474344 599.664547 140.410451 596.422514 142.547661 C 593.180165 144.690074 590.491992 146.735606 588.352792 148.68394 C 586.213277 150.637477 585.144796 152.066011 585.141515 152.97963 C 585.143436 153.893565 586.59188 154.634281 589.487163 155.196575 C 602.510176 157.778766 611.068878 160.011437 615.162953 161.899791 C 619.251826 163.787829 622.082564 165.928413 623.655167 168.321544 C 625.228087 170.709473 626.015119 172.882563 626.016579 174.835613 C 626.017433 178.861688 624.412744 182.670129 621.202827 186.255734 C 617.99291 189.841339 614.029171 192.770199 609.306725 195.036795 C 599.177226 200.008807 590.347797 202.490658 582.828211 202.493387 C 575.308941 202.490914 570.11495 201.345126 567.252072 199.045934 C 564.388879 196.751945 562.956478 194.027913 562.959758 190.879355 C 562.957519 187.735683 563.76103 184.823722 565.364772 182.148358 C 566.968514 179.472994 569.034002 178.136357 571.550831 178.137813 C 574.067659 178.13927 575.322512 178.800342 575.325795 180.121662 Z M 700.972377 128.387429 C 700.970533 132.543886 699.28688 136.190876 695.920787 139.338804 C 692.554694 142.486733 688.730671 144.061185 684.449036 144.056958 C 683.064969 144.061652 682.15045 143.729341 681.71005 143.070748 C 681.269966 142.406952 681.050945 141.542491 681.053302 140.472161 C 681.050457 139.401515 681.176097 138.364783 681.430538 137.356763 C 679.165381 138.112093 676.645709 139.27493 673.876408 140.850791 C 671.107424 142.42145 667.707392 144.752713 663.682146 147.834491 C 659.656584 150.921472 657.642515 153.216826 657.639623 154.725756 C 657.640183 155.232307 658.382237 155.481035 659.859952 155.482031 C 661.337666 155.483026 663.619817 154.96371 666.701203 153.923767 C 669.78779 152.88414 671.939244 152.367329 673.171487 152.369078 C 674.398843 152.365309 675.199099 152.429587 675.577772 152.557027 C 676.391691 152.998106 677.273487 153.955047 678.217642 155.432737 C 679.161482 156.915629 679.633973 158.077466 679.634484 158.928654 C 679.635312 159.774639 678.81534 160.894516 677.180406 162.278195 C 675.545471 163.661875 673.690179 164.718859 671.609957 165.438427 C 669.534623 166.163514 668.148587 166.716379 667.457368 167.092135 C 654.181331 174.520467 647.537758 179.615467 647.541942 182.383285 C 647.541095 187.296966 651.726217 189.749585 660.096674 189.751548 C 665.444069 189.747411 670.826544 188.048313 676.238895 184.653939 C 680.832467 181.758118 684.969472 178.813674 688.649594 175.825811 C 692.329717 172.837948 694.660927 170.99527 695.637706 170.302664 C 696.609283 169.609742 697.350948 169.26316 697.852296 169.262284 C 699.491924 169.262672 700.310536 171.087818 700.308132 174.737724 C 700.310931 178.387946 700.086247 180.797222 699.650006 181.961296 C 699.208562 183.125055 697.946636 184.557503 695.869746 186.253753 C 682.405761 197.20584 669.660828 202.682144 657.640148 202.68298 C 651.22274 202.679557 646.090986 201.798641 642.255291 200.040863 C 635.202504 196.829199 631.678308 191.920699 631.683019 185.310161 C 631.683134 176.626282 637.69077 170.051429 649.711446 165.580715 C 647.316951 164.510995 645.77605 163.143266 645.083541 161.477212 C 644.391348 159.805956 644.047244 157.132368 644.046341 153.45093 C 644.045439 149.769493 645.760185 145.868523 649.190581 141.74802 C 652.621293 137.622314 656.821264 134.243063 661.796329 131.600176 C 672.869543 125.620241 682.747932 122.632932 691.437014 122.633363 C 693.510355 122.628766 695.620675 123.132932 697.757883 124.140027 C 699.900294 125.147437 700.968218 126.564762 700.972377 128.387429 Z M 769.410446 127.255123 C 774.193429 127.258475 776.585007 128.891974 776.584548 132.166027 C 776.582094 133.925631 776.174686 135.216781 775.357437 136.033958 C 774.539873 136.856337 772.792499 139.575194 770.114685 144.200934 C 767.442073 148.82699 764.482346 154.741059 761.245592 161.948977 C 758.003636 169.156579 755.91209 175.306151 754.965436 180.402581 C 754.775687 181.033338 754.680339 181.915255 754.684594 183.048649 C 754.683478 186.505425 755.627755 188.238991 757.512855 188.238625 C 759.403156 188.238575 761.635226 187.340246 764.219152 185.549473 C 766.798192 183.753181 769.092206 181.835138 771.106712 179.790458 C 773.121219 177.745777 775.086544 175.651113 777.007573 173.511984 C 778.928603 171.372854 780.073519 170.147393 780.453043 169.831029 C 780.832566 169.514666 781.395422 169.360872 782.152646 169.359875 C 783.348471 169.359412 784.071198 170.270137 784.325715 172.09757 C 784.575345 173.919484 784.70089 175.806965 784.70235 177.760015 C 784.703811 179.713064 784.512068 181.064311 784.137213 181.819591 C 782.311047 185.405705 778.299976 189.715472 772.09848 194.753778 C 765.902503 199.787197 760.26656 202.306388 755.201687 202.301578 C 750.136498 202.301972 746.407506 200.76477 744.015343 197.679569 C 741.623181 194.594369 740.425943 191.179676 740.428833 187.435806 C 740.42652 183.691621 741.059657 180.403783 742.317838 177.57166 C 737.090571 184.366239 731.09582 190.127271 724.334215 194.844351 C 717.567093 199.566319 712.045315 201.925347 707.763363 201.926323 C 703.486615 201.927615 699.993443 200.634499 697.288418 198.057697 C 693.828308 194.844959 692.093449 190.395018 692.094879 184.6981 C 692.096309 179.001181 693.368296 173.277009 695.916676 167.515493 C 698.469943 161.759496 701.817728 156.506062 705.970753 151.75062 C 710.123461 147.000381 714.688855 142.677291 719.662047 138.775832 C 730.106836 130.590667 739.733602 126.501934 748.548179 126.499545 C 751.942208 126.50207 754.711996 127.067185 756.852025 128.199774 C 758.992053 129.332363 760.34707 130.751462 760.912504 132.446349 C 762.423328 130.183086 763.69566 128.751271 764.7347 128.151218 C 765.773425 127.556368 767.332218 127.254201 769.410446 127.255123 Z M 756.852422 137.734841 C 746.090314 137.733804 734.954352 143.715149 723.434447 155.673042 C 719.346916 159.952055 715.583724 165.08104 712.15559 171.055426 C 708.727141 177.035015 707.011106 181.129114 707.01332 183.327635 C 707.010016 185.531042 707.637491 186.63441 708.901266 186.632853 C 710.66087 186.635307 715.571728 183.158251 723.623435 176.201052 C 731.680028 169.249372 737.029874 164.133222 739.672341 160.863008 C 742.567742 157.211301 748.294436 149.501912 756.852422 137.734841 Z M 756.852422 137.734841 " stroke="#000000" stroke-width="30.449947" stroke-opacity="1" stroke-miterlimit="4"/></g><g fill="#ffffff" fill-opacity="1"><g transform="translate(333.627643, 334.552181)"><g><path d="M 29.765625 -71.265625 L 28.265625 -71.390625 L 27.984375 -71.375 C 26.796875 -71.300781 25.550781 -71.695312 24.25 -72.5625 C 22.957031 -73.425781 22.238281 -75.0625 22.09375 -77.46875 C 21.945312 -79.875 23.085938 -82.679688 25.515625 -85.890625 C 27.941406 -89.109375 31.3125 -92.132812 35.625 -94.96875 C 39.9375 -97.8125 45.375 -100.257812 51.9375 -102.3125 C 58.5 -104.363281 65.476562 -105.613281 72.875 -106.0625 C 87.976562 -106.976562 99.960938 -104.710938 108.828125 -99.265625 C 117.691406 -93.828125 122.410156 -86.359375 122.984375 -76.859375 C 123.347656 -70.921875 122.390625 -64.90625 120.109375 -58.8125 C 117.835938 -52.726562 114.632812 -47.046875 110.5 -41.765625 C 106.375 -36.484375 101.457031 -31.476562 95.75 -26.75 C 90.039062 -22.03125 84.007812 -17.945312 77.65625 -14.5 C 63.914062 -7.144531 50.601562 -3.078125 37.71875 -2.296875 C 31.363281 -1.910156 27.328125 -2.1875 25.609375 -3.125 C 24.972656 -3.40625 24.335938 -3.867188 23.703125 -4.515625 C 23.078125 -5.171875 22.59375 -5.601562 22.25 -5.8125 C 21.3125 -6.320312 20.785156 -7.503906 20.671875 -9.359375 C 20.566406 -11.222656 20.660156 -12.921875 20.953125 -14.453125 C 22.054688 -19.585938 27.734375 -30.910156 37.984375 -48.421875 C 48.234375 -65.929688 56.835938 -80.070312 63.796875 -90.84375 C 64.273438 -91.582031 66.90625 -92.257812 71.6875 -92.875 C 73.664062 -93 75.035156 -92.941406 75.796875 -92.703125 C 76.566406 -92.472656 76.972656 -91.992188 77.015625 -91.265625 C 77.066406 -90.535156 75.972656 -88.382812 73.734375 -84.8125 C 71.492188 -81.25 64.351562 -68.832031 52.3125 -47.5625 C 40.28125 -26.300781 34.28125 -15.390625 34.3125 -14.828125 C 34.351562 -14.273438 36.457031 -14.125 40.625 -14.375 C 44.789062 -14.632812 49.863281 -15.828125 55.84375 -17.953125 C 61.832031 -20.085938 67.425781 -22.753906 72.625 -25.953125 C 77.820312 -29.160156 82.753906 -32.804688 87.421875 -36.890625 C 92.097656 -40.984375 96.054688 -45.109375 99.296875 -49.265625 C 106.390625 -58.390625 109.734375 -66.316406 109.328125 -73.046875 C 108.921875 -79.785156 105.5 -85.320312 99.0625 -89.65625 C 92.632812 -93.988281 84.082031 -95.832031 73.40625 -95.1875 C 66.195312 -94.75 59.460938 -93.132812 53.203125 -90.34375 C 46.941406 -87.550781 42.664062 -85.140625 40.375 -83.109375 C 38.09375 -81.085938 36.96875 -79.742188 37 -79.078125 C 37.03125 -78.703125 37.332031 -78.53125 37.90625 -78.5625 L 40.890625 -79.3125 C 41.316406 -79.34375 41.535156 -79.265625 41.546875 -79.078125 C 41.566406 -78.890625 41.1875 -78.53125 40.40625 -78 C 39.632812 -77.476562 39.015625 -76.929688 38.546875 -76.359375 C 38.085938 -75.785156 36.90625 -74.835938 35 -73.515625 C 33.101562 -72.203125 31.359375 -71.453125 29.765625 -71.265625 Z M 29.765625 -71.265625 "/></g></g></g><g fill="#ffffff" fill-opacity="1"><g transform="translate(447.107597, 327.65863)"><g><path d="M 49.0625 -56.984375 C 50.476562 -57.078125 51.960938 -56.53125 53.515625 -55.34375 C 55.078125 -54.164062 55.9375 -52.269531 56.09375 -49.65625 C 56.25 -47.039062 55.535156 -43.59375 53.953125 -39.3125 C 52.378906 -35.039062 50.117188 -30.648438 47.171875 -26.140625 C 44.234375 -21.640625 40.957031 -17.375 37.34375 -13.34375 C 33.738281 -9.320312 29.785156 -5.96875 25.484375 -3.28125 C 21.179688 -0.59375 17.21875 0.859375 13.59375 1.078125 C 9.96875 1.304688 6.992188 0.347656 4.671875 -1.796875 C 2.347656 -3.953125 1.0625 -7.066406 0.8125 -11.140625 C 0.5625 -15.210938 1.285156 -19.78125 2.984375 -24.84375 C 4.691406 -29.90625 7.003906 -34.425781 9.921875 -38.40625 C 12.847656 -42.394531 16.054688 -46.003906 19.546875 -49.234375 C 26.847656 -55.867188 33.394531 -59.363281 39.1875 -59.71875 C 41.769531 -59.875 43.757812 -59.359375 45.15625 -58.171875 C 45.65625 -57.773438 45.914062 -57.410156 45.9375 -57.078125 L 45.953125 -56.65625 C 46.609375 -56.789062 47.644531 -56.898438 49.0625 -56.984375 Z M 42.5 -47.171875 L 42 -47.140625 C 40.351562 -47.035156 39.457031 -48.179688 39.3125 -50.578125 C 35.945312 -49.242188 32.46875 -47.050781 28.875 -44 C 25.28125 -40.945312 22.109375 -37.398438 19.359375 -33.359375 C 13.816406 -25.273438 11.160156 -18.566406 11.390625 -13.234375 C 11.554688 -10.597656 12.601562 -9.335938 14.53125 -9.453125 C 16.457031 -9.578125 19.25 -11.023438 22.90625 -13.796875 C 26.570312 -16.566406 30.128906 -20.414062 33.578125 -25.34375 C 37.035156 -30.28125 39.585938 -34.535156 41.234375 -38.109375 C 42.890625 -41.691406 43.675781 -44.109375 43.59375 -45.359375 C 43.519531 -46.609375 43.15625 -47.210938 42.5 -47.171875 Z M 42.5 -47.171875 "/></g></g></g><g fill="#ffffff" fill-opacity="1"><g transform="translate(500.069614, 324.441354)"><g><path d="M 40.578125 -13.375 C 40.703125 -11.300781 42.179688 -10.351562 45.015625 -10.53125 C 46.515625 -10.625 48.359375 -11.492188 50.546875 -13.140625 C 52.742188 -14.785156 54.707031 -16.554688 56.4375 -18.453125 C 61.03125 -23.585938 63.660156 -26.175781 64.328125 -26.21875 C 65.554688 -26.289062 66.273438 -24.5625 66.484375 -21.03125 C 66.703125 -17.507812 65.738281 -15.023438 63.59375 -13.578125 C 57.238281 -7.085938 52.265625 -3.070312 48.671875 -1.53125 C 46.648438 -0.707031 44.390625 -0.242188 41.890625 -0.140625 C 39.390625 -0.0351562 36.847656 -0.96875 34.265625 -2.9375 C 31.679688 -4.90625 30.296875 -7.40625 30.109375 -10.4375 C 29.929688 -13.46875 30.523438 -16.960938 31.890625 -20.921875 C 33.265625 -24.890625 34.703125 -28.296875 36.203125 -31.140625 C 37.703125 -33.992188 39.5625 -37.320312 41.78125 -41.125 C 44.007812 -44.925781 45.171875 -47.28125 45.265625 -48.1875 L 45.125 -48.3125 C 43.570312 -48.082031 39.90625 -44.789062 34.125 -38.4375 C 28.351562 -32.082031 23.597656 -26.570312 19.859375 -21.90625 C 16.128906 -17.238281 11.710938 -11.039062 6.609375 -3.3125 C 5.171875 -1.1875 3.957031 -0.09375 2.96875 -0.03125 C 1.988281 0.0195312 0.644531 -0.21875 -1.0625 -0.75 C -2.78125 -1.28125 -3.832031 -1.675781 -4.21875 -1.9375 C -4.613281 -2.207031 -4.828125 -2.617188 -4.859375 -3.171875 C -4.898438 -3.734375 -4.78125 -4.4375 -4.5 -5.28125 C -4.21875 -6.132812 -3.941406 -6.835938 -3.671875 -7.390625 C -3.410156 -7.953125 -2.957031 -8.820312 -2.3125 -10 C -1.675781 -11.175781 -0.421875 -13.648438 1.453125 -17.421875 C 3.328125 -21.191406 6.207031 -26.832031 10.09375 -34.34375 C 13.988281 -41.863281 16.316406 -46.394531 17.078125 -47.9375 C 18.671875 -51.164062 19.992188 -53.519531 21.046875 -55 C 22.992188 -57.8125 26.488281 -59.367188 31.53125 -59.671875 C 32.65625 -59.742188 33.265625 -59.070312 33.359375 -57.65625 C 33.484375 -55.457031 31.6875 -51.171875 27.96875 -44.796875 L 25.265625 -40.15625 C 32.867188 -49.695312 39.398438 -55.835938 44.859375 -58.578125 C 47.515625 -59.910156 49.9375 -60.644531 52.125 -60.78125 C 54.3125 -60.914062 56.085938 -60.4375 57.453125 -59.34375 C 58.828125 -58.25 59.554688 -56.984375 59.640625 -55.546875 C 59.722656 -54.109375 59.332031 -52.359375 58.46875 -50.296875 C 57.601562 -48.234375 56.707031 -46.378906 55.78125 -44.734375 C 54.863281 -43.097656 53.65625 -41.023438 52.15625 -38.515625 C 50.65625 -36.015625 49.835938 -34.65625 49.703125 -34.4375 C 49.578125 -34.226562 49.25 -33.644531 48.71875 -32.6875 C 48.1875 -31.738281 47.789062 -31.046875 47.53125 -30.609375 C 47.28125 -30.171875 46.851562 -29.398438 46.25 -28.296875 C 45.65625 -27.191406 45.179688 -26.269531 44.828125 -25.53125 C 44.484375 -24.800781 44.046875 -23.898438 43.515625 -22.828125 C 42.992188 -21.765625 42.578125 -20.84375 42.265625 -20.0625 C 41.960938 -19.289062 41.648438 -18.445312 41.328125 -17.53125 C 40.753906 -15.84375 40.503906 -14.457031 40.578125 -13.375 Z M 40.578125 -13.375 "/></g></g></g><g fill="#ffffff" fill-opacity="1"><g transform="translate(556.562421, 321.009594)"><g><path d="M 86.65625 -111.5 C 87.550781 -111.550781 88.269531 -111.3125 88.8125 -110.78125 C 89.363281 -110.257812 89.65625 -109.703125 89.6875 -109.109375 C 89.726562 -108.515625 89.335938 -107.398438 88.515625 -105.765625 C 87.691406 -104.128906 85.789062 -100.5625 82.8125 -95.0625 C 79.84375 -89.570312 77.53125 -85.265625 75.875 -82.140625 C 66.238281 -64.128906 58.75 -48.929688 53.40625 -36.546875 C 48.070312 -24.171875 45.484375 -16.742188 45.640625 -14.265625 L 45.671875 -13.6875 C 45.785156 -11.757812 46.546875 -10.835938 47.953125 -10.921875 C 49.367188 -11.015625 51.035156 -11.78125 52.953125 -13.21875 C 54.878906 -14.65625 56.550781 -16.171875 57.96875 -17.765625 C 59.382812 -19.359375 60.804688 -21.007812 62.234375 -22.71875 C 63.660156 -24.4375 64.53125 -25.445312 64.84375 -25.75 C 65.15625 -26.0625 65.570312 -26.234375 66.09375 -26.265625 C 66.894531 -26.316406 67.441406 -25.84375 67.734375 -24.84375 C 68.035156 -23.851562 68.238281 -22.445312 68.34375 -20.625 C 68.457031 -18.8125 68.390625 -17.613281 68.140625 -17.03125 C 66.929688 -14.320312 64.125 -10.929688 59.71875 -6.859375 C 55.320312 -2.785156 51.046875 -0.625 46.890625 -0.375 C 39.835938 0.0507812 36.128906 -2.722656 35.765625 -8.703125 C 35.535156 -12.421875 36.648438 -17.378906 39.109375 -23.578125 C 35.597656 -18.390625 31.972656 -13.9375 28.234375 -10.21875 C 21.265625 -3.375 15.078125 0.210938 9.671875 0.546875 C 6.648438 0.722656 4.359375 -0.195312 2.796875 -2.21875 C 1.242188 -4.25 0.34375 -7.253906 0.09375 -11.234375 C -0.144531 -15.210938 1.117188 -20.070312 3.890625 -25.8125 C 6.660156 -31.5625 10.226562 -36.800781 14.59375 -41.53125 C 18.957031 -46.257812 23.875 -50.289062 29.34375 -53.625 C 34.8125 -56.957031 39.921875 -58.769531 44.671875 -59.0625 C 46.179688 -59.15625 48.003906 -58.347656 50.140625 -56.640625 C 51.367188 -58.867188 53.628906 -63.347656 56.921875 -70.078125 C 67.273438 -90.222656 74.179688 -102.550781 77.640625 -107.0625 C 79.460938 -109.757812 82.46875 -111.238281 86.65625 -111.5 Z M 46.234375 -49.71875 C 39.546875 -47.8125 33.425781 -44.273438 27.875 -39.109375 C 22.332031 -33.953125 18.257812 -28.660156 15.65625 -23.234375 C 13.0625 -17.804688 11.8125 -14.316406 11.90625 -12.765625 C 12 -11.210938 12.375 -10.457031 13.03125 -10.5 C 15.863281 -10.664062 22.476562 -17.40625 32.875 -30.71875 C 38.050781 -37.257812 42.503906 -43.59375 46.234375 -49.71875 Z M 46.234375 -49.71875 "/></g></g></g><g fill="#ffffff" fill-opacity="1"><g transform="translate(616.091734, 317.393375)"><g><path d="M 49.765625 -56.046875 C 49.953125 -52.929688 48.851562 -50.117188 46.46875 -47.609375 C 44.09375 -45.097656 41.304688 -43.75 38.109375 -43.5625 C 37.066406 -43.5 36.363281 -43.703125 36 -44.171875 C 35.644531 -44.648438 35.441406 -45.289062 35.390625 -46.09375 C 35.347656 -46.894531 35.398438 -47.679688 35.546875 -48.453125 C 33.890625 -47.773438 32.054688 -46.785156 30.046875 -45.484375 C 28.046875 -44.179688 25.613281 -42.285156 22.75 -39.796875 C 19.882812 -37.304688 18.484375 -35.5 18.546875 -34.375 C 18.566406 -33.988281 19.125 -33.828125 20.21875 -33.890625 C 21.320312 -33.960938 23.003906 -34.457031 25.265625 -35.375 C 27.523438 -36.300781 29.113281 -36.789062 30.03125 -36.84375 C 30.957031 -36.894531 31.566406 -36.882812 31.859375 -36.8125 C 32.492188 -36.519531 33.195312 -35.835938 33.96875 -34.765625 C 34.75 -33.703125 35.15625 -32.851562 35.1875 -32.21875 C 35.226562 -31.59375 34.664062 -30.722656 33.5 -29.609375 C 32.332031 -28.503906 30.988281 -27.628906 29.46875 -26.984375 C 27.957031 -26.347656 26.945312 -25.867188 26.4375 -25.546875 C 16.84375 -19.390625 12.109375 -15.28125 12.234375 -13.21875 C 12.453125 -9.539062 15.691406 -7.894531 21.953125 -8.28125 C 25.960938 -8.519531 29.914062 -10.035156 33.8125 -12.828125 C 37.113281 -15.203125 40.070312 -17.59375 42.6875 -20 C 45.3125 -22.40625 46.972656 -23.882812 47.671875 -24.4375 C 48.367188 -25 48.90625 -25.289062 49.28125 -25.3125 C 50.507812 -25.382812 51.203125 -24.054688 51.359375 -21.328125 C 51.523438 -18.597656 51.472656 -16.789062 51.203125 -15.90625 C 50.929688 -15.019531 50.050781 -13.890625 48.5625 -12.515625 C 38.988281 -3.703125 29.710938 0.972656 20.734375 1.515625 C 15.921875 1.804688 12.039062 1.378906 9.09375 0.234375 C 3.664062 -1.847656 0.800781 -5.363281 0.5 -10.3125 C 0.101562 -16.800781 4.300781 -21.992188 13.09375 -25.890625 C 11.257812 -26.578125 10.046875 -27.523438 9.453125 -28.734375 C 8.867188 -29.953125 8.488281 -31.9375 8.3125 -34.6875 C 8.144531 -37.445312 9.25 -40.445312 11.625 -43.6875 C 14.007812 -46.925781 17 -49.648438 20.59375 -51.859375 C 28.613281 -56.828125 35.875 -59.507812 42.375 -59.90625 C 43.914062 -60 45.507812 -59.71875 47.15625 -59.0625 C 48.8125 -58.414062 49.679688 -57.410156 49.765625 -56.046875 Z M 49.765625 -56.046875 "/></g></g></g><g fill="#ffffff" fill-opacity="1"><g transform="translate(661.992137, 314.60507)"><g/></g></g><g fill="#ffffff" fill-opacity="1"><g transform="translate(692.003964, 312.781946)"><g><path d="M 11.296875 -14.859375 L 11.296875 -13.71875 C 11.359375 -12.550781 11.859375 -11.566406 12.796875 -10.765625 C 13.742188 -9.972656 14.597656 -9.601562 15.359375 -9.65625 C 21.003906 -10 25.953125 -11.144531 30.203125 -13.09375 C 34.460938 -15.050781 36.546875 -16.878906 36.453125 -18.578125 C 36.398438 -19.378906 35.5625 -20.023438 33.9375 -20.515625 C 32.320312 -21.015625 29.613281 -21.582031 25.8125 -22.21875 C 22.019531 -22.863281 19.257812 -23.382812 17.53125 -23.78125 C 15.8125 -24.175781 14.441406 -24.550781 13.421875 -24.90625 C 12.410156 -25.269531 11.375 -25.800781 10.3125 -26.5 C 8 -27.914062 6.75 -30.164062 6.5625 -33.25 C 6.375 -36.332031 7.328125 -39.457031 9.421875 -42.625 C 11.515625 -45.800781 14.210938 -48.578125 17.515625 -50.953125 C 20.828125 -53.335938 24.410156 -55.46875 28.265625 -57.34375 C 35.890625 -61.082031 42.363281 -63.113281 47.6875 -63.4375 C 52.90625 -63.75 56.195312 -62.804688 57.5625 -60.609375 C 57.976562 -59.828125 58.21875 -58.945312 58.28125 -57.96875 L 58.3125 -57.484375 C 58.46875 -54.984375 58.054688 -52.992188 57.078125 -51.515625 C 56.109375 -50.046875 54.515625 -48.675781 52.296875 -47.40625 C 50.078125 -46.132812 48.296875 -45.457031 46.953125 -45.375 C 45.609375 -45.300781 44.753906 -45.347656 44.390625 -45.515625 C 44.023438 -45.679688 43.71875 -45.910156 43.46875 -46.203125 C 43.226562 -46.492188 42.925781 -46.695312 42.5625 -46.8125 C 42.195312 -46.9375 41.992188 -47.28125 41.953125 -47.84375 C 41.921875 -48.414062 42.125 -49.003906 42.5625 -49.609375 C 43 -50.222656 43.296875 -50.863281 43.453125 -51.53125 C 40.335938 -51.207031 37.125 -50.296875 33.8125 -48.796875 C 30.5 -47.304688 27.679688 -45.679688 25.359375 -43.921875 C 23.035156 -42.171875 21.117188 -40.519531 19.609375 -38.96875 C 18.097656 -37.414062 17.363281 -36.296875 17.40625 -35.609375 C 17.445312 -34.929688 18.5625 -34.441406 20.75 -34.140625 C 30.613281 -32.796875 37.113281 -31.515625 40.25 -30.296875 C 43.394531 -29.078125 45.609375 -27.609375 46.890625 -25.890625 C 48.179688 -24.171875 48.875 -22.582031 48.96875 -21.125 C 49.144531 -18.101562 48.113281 -15.175781 45.875 -12.34375 C 43.644531 -9.519531 40.816406 -7.15625 37.390625 -5.25 C 30.035156 -1.0625 23.546875 1.203125 17.921875 1.546875 C 12.296875 1.890625 8.359375 1.265625 6.109375 -0.328125 C 3.867188 -1.921875 2.675781 -3.894531 2.53125 -6.25 C 2.394531 -8.601562 2.863281 -10.816406 3.9375 -12.890625 C 5.007812 -14.960938 6.488281 -16.054688 8.375 -16.171875 C 10.257812 -16.285156 11.234375 -15.847656 11.296875 -14.859375 Z M 11.296875 -14.859375 "/></g></g></g><g fill="#ffffff" fill-opacity="1"><g transform="translate(745.177846, 309.5518)"><g><path d="M 49.765625 -56.046875 C 49.953125 -52.929688 48.851562 -50.117188 46.46875 -47.609375 C 44.09375 -45.097656 41.304688 -43.75 38.109375 -43.5625 C 37.066406 -43.5 36.363281 -43.703125 36 -44.171875 C 35.644531 -44.648438 35.441406 -45.289062 35.390625 -46.09375 C 35.347656 -46.894531 35.398438 -47.679688 35.546875 -48.453125 C 33.890625 -47.773438 32.054688 -46.785156 30.046875 -45.484375 C 28.046875 -44.179688 25.613281 -42.285156 22.75 -39.796875 C 19.882812 -37.304688 18.484375 -35.5 18.546875 -34.375 C 18.566406 -33.988281 19.125 -33.828125 20.21875 -33.890625 C 21.320312 -33.960938 23.003906 -34.457031 25.265625 -35.375 C 27.523438 -36.300781 29.113281 -36.789062 30.03125 -36.84375 C 30.957031 -36.894531 31.566406 -36.882812 31.859375 -36.8125 C 32.492188 -36.519531 33.195312 -35.835938 33.96875 -34.765625 C 34.75 -33.703125 35.15625 -32.851562 35.1875 -32.21875 C 35.226562 -31.59375 34.664062 -30.722656 33.5 -29.609375 C 32.332031 -28.503906 30.988281 -27.628906 29.46875 -26.984375 C 27.957031 -26.347656 26.945312 -25.867188 26.4375 -25.546875 C 16.84375 -19.390625 12.109375 -15.28125 12.234375 -13.21875 C 12.453125 -9.539062 15.691406 -7.894531 21.953125 -8.28125 C 25.960938 -8.519531 29.914062 -10.035156 33.8125 -12.828125 C 37.113281 -15.203125 40.070312 -17.59375 42.6875 -20 C 45.3125 -22.40625 46.972656 -23.882812 47.671875 -24.4375 C 48.367188 -25 48.90625 -25.289062 49.28125 -25.3125 C 50.507812 -25.382812 51.203125 -24.054688 51.359375 -21.328125 C 51.523438 -18.597656 51.472656 -16.789062 51.203125 -15.90625 C 50.929688 -15.019531 50.050781 -13.890625 48.5625 -12.515625 C 38.988281 -3.703125 29.710938 0.972656 20.734375 1.515625 C 15.921875 1.804688 12.039062 1.378906 9.09375 0.234375 C 3.664062 -1.847656 0.800781 -5.363281 0.5 -10.3125 C 0.101562 -16.800781 4.300781 -21.992188 13.09375 -25.890625 C 11.257812 -26.578125 10.046875 -27.523438 9.453125 -28.734375 C 8.867188 -29.953125 8.488281 -31.9375 8.3125 -34.6875 C 8.144531 -37.445312 9.25 -40.445312 11.625 -43.6875 C 14.007812 -46.925781 17 -49.648438 20.59375 -51.859375 C 28.613281 -56.828125 35.875 -59.507812 42.375 -59.90625 C 43.914062 -60 45.507812 -59.71875 47.15625 -59.0625 C 48.8125 -58.414062 49.679688 -57.410156 49.765625 -56.046875 Z M 49.765625 -56.046875 "/></g></g></g><g fill="#ffffff" fill-opacity="1"><g transform="translate(791.078249, 306.763494)"><g><path d="M 54.984375 -57.203125 C 58.566406 -57.421875 60.4375 -56.304688 60.59375 -53.859375 C 60.664062 -52.535156 60.414062 -51.550781 59.84375 -50.90625 C 59.269531 -50.257812 58.085938 -48.144531 56.296875 -44.5625 C 54.503906 -40.988281 52.5625 -36.429688 50.46875 -30.890625 C 48.375 -25.359375 47.085938 -20.65625 46.609375 -16.78125 C 46.492188 -16.3125 46.460938 -15.65625 46.515625 -14.8125 C 46.671875 -12.21875 47.457031 -10.960938 48.875 -11.046875 C 50.289062 -11.128906 51.921875 -11.898438 53.765625 -13.359375 C 55.609375 -14.828125 57.238281 -16.367188 58.65625 -17.984375 C 60.070312 -19.609375 61.445312 -21.257812 62.78125 -22.9375 C 64.125 -24.625 64.925781 -25.59375 65.1875 -25.84375 C 65.457031 -26.101562 65.878906 -26.253906 66.453125 -26.296875 C 67.347656 -26.347656 67.929688 -25.695312 68.203125 -24.34375 C 68.472656 -22.988281 68.648438 -21.578125 68.734375 -20.109375 C 68.828125 -18.648438 68.75 -17.628906 68.5 -17.046875 C 67.289062 -14.285156 64.484375 -10.878906 60.078125 -6.828125 C 55.679688 -2.785156 51.585938 -0.648438 47.796875 -0.421875 C 44.003906 -0.191406 41.140625 -1.171875 39.203125 -3.359375 C 37.273438 -5.554688 36.222656 -8.054688 36.046875 -10.859375 C 35.878906 -13.660156 36.207031 -16.15625 37.03125 -18.34375 C 33.414062 -13.019531 29.1875 -8.4375 24.34375 -4.59375 C 19.5 -0.757812 15.472656 1.25 12.265625 1.4375 C 9.066406 1.632812 6.394531 0.832031 4.25 -0.96875 C 1.519531 -3.207031 0.03125 -6.457031 -0.21875 -10.71875 C -0.476562 -14.988281 0.207031 -19.332031 1.84375 -23.75 C 3.488281 -28.164062 5.757812 -32.242188 8.65625 -35.984375 C 11.550781 -39.734375 14.769531 -43.1875 18.3125 -46.34375 C 25.75 -52.925781 32.765625 -56.421875 39.359375 -56.828125 C 41.890625 -56.984375 43.984375 -56.679688 45.640625 -55.921875 C 47.296875 -55.171875 48.375 -54.175781 48.875 -52.9375 C 49.914062 -54.695312 50.804688 -55.820312 51.546875 -56.3125 C 52.285156 -56.8125 53.429688 -57.109375 54.984375 -57.203125 Z M 46.078125 -48.8125 C 38.035156 -48.320312 29.972656 -43.335938 21.890625 -33.859375 C 19.035156 -30.472656 16.460938 -26.460938 14.171875 -21.828125 C 11.878906 -17.203125 10.78125 -14.066406 10.875 -12.421875 C 10.976562 -10.773438 11.492188 -9.976562 12.421875 -10.03125 C 13.742188 -10.113281 17.257812 -12.9375 22.96875 -18.5 C 28.675781 -24.070312 32.445312 -28.144531 34.28125 -30.71875 C 36.269531 -33.582031 40.203125 -39.613281 46.078125 -48.8125 Z M 46.078125 -48.8125 "/></g></g></g><g clip-path="url(#347eb64c63)"><g clip-path="url(#c9f8801ffc)"><path fill="#010101" d="M 204.816406 205.859375 L 342.234375 205.859375 L 342.234375 343.28125 L 204.816406 343.28125 Z M 204.816406 205.859375 " fill-opacity="1" fill-rule="nonzero"/></g></g><g clip-path="url(#6fbf91c051)"><g clip-path="url(#acfcc6ea9d)"><path fill="#ff1731" d="M 211.855469 212.902344 L 335.195312 212.902344 L 335.195312 336.238281 L 211.855469 336.238281 Z M 211.855469 212.902344 " fill-opacity="1" fill-rule="nonzero"/></g></g><g clip-path="url(#61bc24aaf8)"><g clip-path="url(#4be4cdbe70)"><path fill="#000000" d="M 124.007812 208.277344 L 259.011719 208.277344 L 259.011719 343.28125 L 124.007812 343.28125 Z M 124.007812 208.277344 " fill-opacity="1" fill-rule="nonzero"/></g></g><g clip-path="url(#1085ac537e)"><path fill="#ffffff" d="M 226.136719 253.75 C 223.550781 253.75 221.453125 255.644531 221.453125 257.988281 C 221.453125 259.234375 222.0625 260.347656 223.011719 261.125 L 203.730469 280.472656 L 192.953125 250.570312 C 194.828125 250.015625 196.191406 248.441406 196.191406 246.558594 C 196.191406 244.21875 194.09375 242.320312 191.507812 242.320312 C 188.917969 242.320312 186.820312 244.21875 186.820312 246.558594 C 186.820312 248.441406 188.183594 250.019531 190.058594 250.570312 L 179.28125 280.472656 L 160 261.125 C 160.949219 260.347656 161.558594 259.238281 161.558594 257.988281 C 161.558594 255.644531 159.460938 253.75 156.875 253.75 C 154.285156 253.75 152.1875 255.644531 152.1875 257.988281 C 152.1875 260.328125 154.285156 262.226562 156.875 262.226562 C 157.308594 262.226562 157.722656 262.15625 158.121094 262.054688 L 170.320312 301.851562 L 212.691406 301.851562 L 224.890625 262.054688 C 225.292969 262.15625 225.703125 262.226562 226.136719 262.226562 C 228.722656 262.226562 230.820312 260.328125 230.820312 257.988281 C 230.820312 255.644531 228.722656 253.75 226.136719 253.75 Z M 169.707031 309.226562 L 212.691406 309.226562 L 212.691406 304.988281 L 169.707031 304.988281 Z M 169.707031 309.226562 " fill-opacity="1" fill-rule="nonzero"/></g><g clip-path="url(#26e2bd64f7)"><g mask="url(#20d133cad1)"><g transform="matrix(1, 0, 0, 1, 191, 242)"><g clip-path="url(#a3472fa870)"><g clip-path="url(#2c5fdda585)"><path fill="#ffffff" d="M 0.503906 62.988281 L 21.691406 62.988281 L 21.691406 67.226562 L 0.503906 67.226562 Z M 0.503906 62.988281 " fill-opacity="1" fill-rule="nonzero"/></g><g clip-path="url(#d53719fe29)"><path fill="#ffffff" d="M 35.136719 11.75 C 32.550781 11.75 30.453125 13.644531 30.453125 15.988281 C 30.453125 17.234375 31.0625 18.347656 32.011719 19.125 L 12.730469 38.472656 L 1.953125 8.570312 C 3.828125 8.015625 5.191406 6.441406 5.191406 4.558594 C 5.191406 2.21875 3.09375 0.320312 0.507812 0.320312 L 0.503906 0.320312 L 0.503906 59.851562 L 21.691406 59.851562 L 33.890625 20.054688 C 34.292969 20.15625 34.703125 20.226562 35.136719 20.226562 C 37.722656 20.226562 39.820312 18.328125 39.820312 15.988281 C 39.820312 13.644531 37.722656 11.75 35.136719 11.75 Z M 35.136719 11.75 " fill-opacity="1" fill-rule="nonzero"/></g></g></g></g></g></svg>